<svg id="Capa_1" enable-background="new 0 0 64 64" height="512" viewBox="0 0 64 64" width="512" xmlns="http://www.w3.org/2000/svg"><g><path d="m61 28h-8.347l7.453-8.074c2.675-2.897 2.495-7.414-.402-10.089-.019-.018-.038-.035-.058-.053-2.916-2.55-7.32-2.363-10.009.426l-.857.856-.856-.856c-1.919-1.91-4.715-2.642-7.324-1.918-.53.155-.834.711-.679 1.241s.711.834 1.241.679c1.908-.526 3.951.013 5.351 1.412l1.563 1.564c.39.39 1.024.39 1.414 0l1.564-1.564c1.95-2.002 5.116-2.158 7.253-.357 2.107 1.902 2.273 5.152.371 7.26-.012.014-.025.027-.037.04l-7.926 8.586c-.496.543-1.199.851-1.935.847-.734.003-1.436-.305-1.931-.847l-7.925-8.585c-1.63-1.754-1.824-4.404-.466-6.376.305-.46.179-1.081-.282-1.386-.452-.299-1.059-.184-1.37.259-1.887 2.741-1.617 6.424.649 8.861l7.452 8.074h-5.907c-.552 0-1 .448-1 1v2c0 1.657 1.343 3 3 3h8v1.184c-1.118.398-1.895 1.421-1.979 2.605l-30.568 8.492c-.125-.182-.27-.35-.432-.5-.296-.269-.643-.475-1.021-.607v-2.174h8c1.657 0 3-1.343 3-3v-2c0-.552-.448-1-1-1h-5.54c.991-1.097 1.54-2.522 1.54-4v-.184c1.555-.542 2.377-2.242 1.835-3.797-.299-.86-.975-1.535-1.835-1.835v-.484c3.201-2.855 3.934-7.577 1.747-11.268-.281-.476-.894-.634-1.37-.353s-.634.894-.353 1.37c1.777 2.993 1.072 6.839-1.65 9.008-.236.19-.374.477-.374.78v.763h-.883l.877-7.89c.06-.549-.336-1.043-.885-1.103-.143-.016-.288 0-.425.045l-2.684.894-2.684-.894c-.524-.175-1.09.109-1.265.633-.046.137-.061.282-.045.425l.877 7.89h-.883v-.761c0-.303-.138-.59-.374-.78-3.021-2.406-3.519-6.805-1.113-9.825 2.176-2.732 6.033-3.439 9.036-1.658.476.281 1.089.123 1.37-.353s.123-1.089-.353-1.37c-4.278-2.523-9.792-1.1-12.314 3.179-2.178 3.692-1.446 8.409 1.748 11.268v.482c-1.555.542-2.377 2.242-1.835 3.797.3.86.975 1.536 1.835 1.835v.186c0 1.478.549 2.903 1.54 4h-7.54c-.552 0-1 .448-1 1v2c0 1.657 1.343 3 3 3h8v2.185c-1.559.551-2.376 2.261-1.825 3.819.423 1.197 1.555 1.997 2.825 1.996h.141c1.521-.064 2.747-1.267 2.841-2.786l13.428-3.734-4.11 11.52h-1.3c-1.657 0-3 1.343-3 3v2c0 .552.448 1 1 1h10c.552 0 1-.448 1-1s-.448-1-1-1h-9v-1c0-.552.448-1 1-1h14c.552 0 1 .448 1 1v1h-3c-.552 0-1 .448-1 1s.448 1 1 1h4c.552 0 1-.448 1-1v-2c0-1.657-1.343-3-3-3h-1.3l-4.4-12.324 14.246-3.957c.946 1.356 2.812 1.69 4.168.744s1.69-2.812.744-4.168c-.358-.514-.868-.902-1.458-1.111v-1.184h8c.552 0 1-.448 1-1s-.448-1-1-1h-18c-.552 0-1-.448-1-1v-1h21c.552 0 1-.448 1-1s-.448-1-1-1zm-47.834-7.557 1.518.5c.205.069.427.069.632 0l1.518-.5-.734 6.557h-2.2zm-3.166 8.557h10c.552 0 1 .448 1 1s-.448 1-1 1h-10c-.552 0-1-.448-1-1s.448-1 1-1zm1 4h8c0 2.209-1.791 4-4 4s-4-1.791-4-4zm-7 7v-1h20v1c0 .552-.448 1-1 1h-18c-.552 0-1-.448-1-1zm24.419 16 3.581-10.026 3.581 10.026zm-13.68-7.326c-.179.196-.428.313-.693.325-.265.014-.525-.079-.72-.26-.409-.371-.439-1.004-.067-1.413.179-.197.429-.315.695-.326h.046c.552 0 1 .448.999 1.001 0 .249-.093.489-.261.673zm35.261-9.674c-.552 0-1-.448-1-1s.448-1 1-1 1 .448 1 1-.448 1-1 1z"/><circle cx="32" cy="53" r="1"/><path d="m55.619 14.232c.23.204.368.493.38.8.025.534.465.955 1 .954h.047c.552-.025.979-.492.954-1.044 0-.001 0-.001 0-.002-.037-.839-.41-1.628-1.035-2.19-.552-.493-1.27-.761-2.01-.75-.552 0-1 .448-1 1s.448 1 1 1c.243-.01.48.073.664.232z"/><circle cx="3" cy="20" r="1"/><circle cx="27" cy="20" r="1"/><circle cx="15" cy="8" r="1"/><path d="m4.108 14.866c.478.276 1.09.112 1.366-.366s.112-1.09-.366-1.366-1.09-.112-1.366.366c-.276.478-.112 1.09.366 1.366z"/><path d="m4.108 14.866c.478.276 1.09.112 1.366-.366s.112-1.09-.366-1.366-1.09-.112-1.366.366c-.276.478-.112 1.09.366 1.366z"/><path d="m24.892 14.866c.478.276 1.09.112 1.366-.366s.112-1.09-.366-1.366-1.09-.112-1.366.366c-.276.478-.112 1.09.366 1.366z"/><path d="m24.892 26.866c.478.276 1.09.112 1.366-.366s.112-1.09-.366-1.366-1.09-.112-1.366.366c-.276.478-.112 1.09.366 1.366z"/><circle cx="21" cy="9.608" r="1"/><path d="m4.108 25.134c-.478.276-.642.888-.366 1.366s.888.642 1.366.366.642-.888.366-1.366c-.276-.478-.888-.642-1.366-.366z"/><path d="m9.5 10.474c.478-.276.642-.888.366-1.366s-.888-.642-1.366-.366-.642.888-.366 1.366c.276.478.888.642 1.366.366z"/></g></svg>